<svg width="24" height="25" viewBox="0 0 24 25" fill="none" xmlns="http://www.w3.org/2000/svg">
<g id="Cart1">
<path id="Vector" d="M8.25 20.75C8.66421 20.75 9 20.4142 9 20C9 19.5858 8.66421 19.25 8.25 19.25C7.83579 19.25 7.5 19.5858 7.5 20C7.5 20.4142 7.83579 20.75 8.25 20.75Z" stroke="black" stroke-width="1.5" stroke-linecap="round" stroke-linejoin="round"/>
<path id="Vector_2" d="M18.75 20.75C19.1642 20.75 19.5 20.4142 19.5 20C19.5 19.5858 19.1642 19.25 18.75 19.25C18.3358 19.25 18 19.5858 18 20C18 20.4142 18.3358 20.75 18.75 20.75Z" stroke="black" stroke-width="1.5" stroke-linecap="round" stroke-linejoin="round"/>
<path id="Vector_3" d="M2.25 4.25H5.25L7.5 17H19.5" stroke="black" stroke-width="1.5" stroke-linecap="round" stroke-linejoin="round"/>
<path id="Vector_4" d="M7.5 13H19.1925C19.2792 13.0001 19.3633 12.9701 19.4304 12.9151C19.4975 12.8601 19.5434 12.7836 19.5605 12.6986L20.9105 5.94859C20.9214 5.89417 20.92 5.838 20.9066 5.78414C20.8931 5.73029 20.8679 5.68009 20.8327 5.63717C20.7975 5.59426 20.7532 5.55969 20.703 5.53597C20.6528 5.51225 20.598 5.49996 20.5425 5.5H6" stroke="black" stroke-width="1.5" stroke-linecap="round" stroke-linejoin="round"/>
</g>
</svg>
