<svg width="144" height="41" viewBox="0 0 144 41" fill="none" xmlns="http://www.w3.org/2000/svg">
<path d="M0 20C0 8.95431 8.95431 0 20 0H124C135.046 0 144 8.95431 144 20V21C144 32.0457 135.046 41 124 41H20C8.95431 41 0 32.0457 0 21V20Z" fill="#3DE469"/>
<path d="M40.7727 18H39.3636C39.2803 17.5947 39.1345 17.2386 38.9261 16.9318C38.7216 16.625 38.4716 16.3674 38.1761 16.1591C37.8845 15.947 37.5606 15.7879 37.2045 15.6818C36.8485 15.5758 36.4773 15.5227 36.0909 15.5227C35.3864 15.5227 34.7481 15.7008 34.1761 16.0568C33.608 16.4129 33.1553 16.9375 32.8182 17.6307C32.4849 18.3239 32.3182 19.1742 32.3182 20.1818C32.3182 21.1894 32.4849 22.0398 32.8182 22.733C33.1553 23.4261 33.608 23.9508 34.1761 24.3068C34.7481 24.6629 35.3864 24.8409 36.0909 24.8409C36.4773 24.8409 36.8485 24.7879 37.2045 24.6818C37.5606 24.5758 37.8845 24.4186 38.1761 24.2102C38.4716 23.9981 38.7216 23.7386 38.9261 23.4318C39.1345 23.1212 39.2803 22.7652 39.3636 22.3636H40.7727C40.6667 22.9583 40.4735 23.4905 40.1932 23.9602C39.9129 24.4299 39.5644 24.8295 39.1477 25.1591C38.7311 25.4848 38.2633 25.733 37.7443 25.9034C37.2292 26.0739 36.678 26.1591 36.0909 26.1591C35.0985 26.1591 34.2159 25.9167 33.4432 25.4318C32.6705 24.947 32.0625 24.2576 31.6193 23.3636C31.1761 22.4697 30.9545 21.4091 30.9545 20.1818C30.9545 18.9545 31.1761 17.8939 31.6193 17C32.0625 16.1061 32.6705 15.4167 33.4432 14.9318C34.2159 14.447 35.0985 14.2045 36.0909 14.2045C36.678 14.2045 37.2292 14.2898 37.7443 14.4602C38.2633 14.6307 38.7311 14.8807 39.1477 15.2102C39.5644 15.536 39.9129 15.9337 40.1932 16.4034C40.4735 16.8693 40.6667 17.4015 40.7727 18Z" fill="white"/>
<path d="M52.8679 20.1818C52.8679 21.4091 52.6463 22.4697 52.2031 23.3636C51.7599 24.2576 51.152 24.947 50.3793 25.4318C49.6065 25.9167 48.724 26.1591 47.7315 26.1591C46.7391 26.1591 45.8565 25.9167 45.0838 25.4318C44.3111 24.947 43.7031 24.2576 43.2599 23.3636C42.8168 22.4697 42.5952 21.4091 42.5952 20.1818C42.5952 18.9545 42.8168 17.8939 43.2599 17C43.7031 16.1061 44.3111 15.4167 45.0838 14.9318C45.8565 14.447 46.7391 14.2045 47.7315 14.2045C48.724 14.2045 49.6065 14.447 50.3793 14.9318C51.152 15.4167 51.7599 16.1061 52.2031 17C52.6463 17.8939 52.8679 18.9545 52.8679 20.1818ZM51.5043 20.1818C51.5043 19.1742 51.3357 18.3239 50.9986 17.6307C50.6652 16.9375 50.2126 16.4129 49.6406 16.0568C49.0724 15.7008 48.4361 15.5227 47.7315 15.5227C47.027 15.5227 46.3887 15.7008 45.8168 16.0568C45.2486 16.4129 44.7959 16.9375 44.4588 17.6307C44.1255 18.3239 43.9588 19.1742 43.9588 20.1818C43.9588 21.1894 44.1255 22.0398 44.4588 22.733C44.7959 23.4261 45.2486 23.9508 45.8168 24.3068C46.3887 24.6629 47.027 24.8409 47.7315 24.8409C48.4361 24.8409 49.0724 24.6629 49.6406 24.3068C50.2126 23.9508 50.6652 23.4261 50.9986 22.733C51.3357 22.0398 51.5043 21.1894 51.5043 20.1818Z" fill="white"/>
<path d="M64.4645 14.3636V26H63.1009L56.7599 16.8636H56.6463V26H55.2372V14.3636H56.6009L62.9645 23.5227H63.0781V14.3636H64.4645Z" fill="white"/>
<path d="M66.6477 15.6136V14.3636H75.375V15.6136H71.7159V26H70.3068V15.6136H66.6477Z" fill="white"/>
<path d="M78.9588 14.3636V26H77.5497V14.3636H78.9588Z" fill="white"/>
<path d="M91.0114 14.3636V26H89.6477L83.3068 16.8636H83.1932V26H81.7841V14.3636H83.1477L89.5114 23.5227H89.625V14.3636H91.0114Z" fill="white"/>
<path d="M101.467 14.3636H102.876V22.0682C102.876 22.8636 102.689 23.5739 102.314 24.1989C101.943 24.8201 101.418 25.3106 100.74 25.6705C100.062 26.0265 99.2666 26.2045 98.3537 26.2045C97.4408 26.2045 96.6454 26.0265 95.9673 25.6705C95.2893 25.3106 94.7628 24.8201 94.3878 24.1989C94.0166 23.5739 93.831 22.8636 93.831 22.0682V14.3636H95.2401V21.9545C95.2401 22.5227 95.3651 23.0284 95.6151 23.4716C95.8651 23.911 96.2211 24.2576 96.6832 24.5114C97.1492 24.7614 97.706 24.8864 98.3537 24.8864C99.0014 24.8864 99.5582 24.7614 100.024 24.5114C100.49 24.2576 100.846 23.911 101.092 23.4716C101.342 23.0284 101.467 22.5227 101.467 21.9545V14.3636Z" fill="white"/>
<path d="M105.69 26V14.3636H112.713V15.6136H107.099V19.5455H112.349V20.7955H107.099V24.75H112.804V26H105.69Z" fill="white"/>
</svg>
