<svg width="20" height="21" viewBox="0 0 20 21" fill="none" xmlns="http://www.w3.org/2000/svg">
<g id="Bag">
<path id="Union" fill-rule="evenodd" clip-rule="evenodd" d="M8.25002 5.49272C8.25002 4.52318 9.03455 3.73907 10 3.73907C10.9655 3.73907 11.75 4.52318 11.75 5.49272V5.57727H8.25002V5.49272ZM6.75002 7.07727V7.99637C6.75002 8.41059 7.08581 8.74637 7.50002 8.74637C7.91424 8.74637 8.25002 8.41059 8.25002 7.99637V7.07727H11.75V7.99637C11.75 8.41059 12.0858 8.74637 12.5 8.74637C12.9142 8.74637 13.25 8.41059 13.25 7.99637V7.07727H14.3054L15.0235 16.4264H4.97651L5.69462 7.07727H6.75002ZM6.75002 5.57727V5.49272C6.75002 3.69681 8.20407 2.23907 10 2.23907C11.796 2.23907 13.25 3.69681 13.25 5.49272V5.57727H15C15.392 5.57727 15.7178 5.87905 15.7478 6.26983L16.5812 17.119C16.5972 17.3273 16.5256 17.5328 16.3836 17.686C16.2417 17.8393 16.0422 17.9264 15.8334 17.9264H4.16669C3.9578 17.9264 3.75837 17.8393 3.61643 17.686C3.47448 17.5328 3.40289 17.3273 3.41889 17.119L4.25223 6.26983C4.28224 5.87905 4.60809 5.57727 5.00002 5.57727H6.75002Z" fill="white"/>
</g>
</svg>
