<svg width="153" height="47" viewBox="0 0 153 47" fill="none" xmlns="http://www.w3.org/2000/svg">
<g id="Vector">
<path d="M0 20C0 8.95431 8.95431 0 20 0H133C144.046 0 153 8.95431 153 20V27C153 38.0457 144.046 47 133 47H20C8.9543 47 0 38.0457 0 27V20Z" fill="#A2D9D9"/>
<path d="M35.04 18.28C34.7067 18.1733 34.3533 18.08 33.98 18C33.6067 17.9067 33.1933 17.8333 32.74 17.78C32.3 17.7133 31.8333 17.68 31.34 17.68C30.54 17.68 29.86 17.8533 29.3 18.2C28.74 18.5467 28.28 18.9933 27.92 19.54C27.5733 20.0733 27.32 20.6733 27.16 21.34C27 22.0067 26.92 22.6667 26.92 23.32C26.92 24.1467 27.0333 24.9 27.26 25.58C27.5 26.2467 27.82 26.82 28.22 27.3C28.6333 27.7667 29.1067 28.1267 29.64 28.38C30.1867 28.6333 30.76 28.76 31.36 28.76C31.92 28.76 32.4333 28.7333 32.9 28.68C33.3667 28.6133 33.7667 28.5467 34.1 28.48C34.4867 28.4 34.8333 28.3067 35.14 28.2L35.48 29.62C35.12 29.74 34.72 29.8467 34.28 29.94C33.9067 30.02 33.4733 30.0933 32.98 30.16C32.4867 30.2267 31.9467 30.26 31.36 30.26C30.3067 30.26 29.38 30.0867 28.58 29.74C27.7933 29.3933 27.1333 28.9133 26.6 28.3C26.08 27.6733 25.6867 26.94 25.42 26.1C25.1533 25.2467 25.02 24.3133 25.02 23.3C25.02 22.14 25.18 21.12 25.5 20.24C25.82 19.3467 26.26 18.6 26.82 18C27.38 17.4 28.0467 16.9467 28.82 16.64C29.5933 16.3333 30.44 16.18 31.36 16.18C31.92 16.18 32.44 16.2133 32.92 16.28C33.4133 16.3333 33.86 16.4067 34.26 16.5C34.6733 16.5933 35.0533 16.6933 35.4 16.8L35.04 18.28Z" fill="white"/>
<path d="M39.7973 23.18C39.7973 21.8867 39.9973 20.7933 40.3973 19.9C40.8107 19.0067 41.3307 18.2867 41.9573 17.74C42.5973 17.1933 43.304 16.8 44.0773 16.56C44.864 16.3067 45.6307 16.18 46.3773 16.18C47.124 16.18 47.884 16.2867 48.6573 16.5C49.444 16.7 50.1507 17.0667 50.7773 17.6C51.4173 18.12 51.9373 18.8333 52.3373 19.74C52.7507 20.6467 52.9573 21.8 52.9573 23.2C52.9573 24.5067 52.7507 25.6067 52.3373 26.5C51.9373 27.3933 51.4173 28.12 50.7773 28.68C50.1507 29.24 49.444 29.6467 48.6573 29.9C47.884 30.14 47.124 30.26 46.3773 30.26C45.6307 30.26 44.864 30.14 44.0773 29.9C43.304 29.66 42.5973 29.2667 41.9573 28.72C41.3307 28.1733 40.8107 27.4467 40.3973 26.54C39.9973 25.6333 39.7973 24.5133 39.7973 23.18ZM51.0573 23.28C51.0573 21.48 50.6373 20.1133 49.7973 19.18C48.9707 18.2467 47.8573 17.78 46.4573 17.78C45.7507 17.78 45.104 17.8933 44.5173 18.12C43.944 18.3333 43.444 18.66 43.0173 19.1C42.604 19.54 42.2773 20.0933 42.0373 20.76C41.8107 21.4133 41.6973 22.1867 41.6973 23.08C41.6973 24.88 42.1107 26.26 42.9373 27.22C43.7773 28.18 44.8973 28.66 46.2973 28.66C46.9907 28.66 47.6307 28.5533 48.2173 28.34C48.804 28.1133 49.304 27.7733 49.7173 27.32C50.144 26.8667 50.4707 26.3067 50.6973 25.64C50.9373 24.9733 51.0573 24.1867 51.0573 23.28Z" fill="white"/>
<path d="M58.7327 16.36H60.3327L67.4927 27.18H67.5327C67.506 26.7933 67.486 26.38 67.4727 25.94C67.446 25.5667 67.426 25.14 67.4127 24.66C67.4127 24.1667 67.4127 23.6667 67.4127 23.16V16.36H69.0127V30H67.4127L60.2527 19.14H60.2127C60.226 19.54 60.246 19.96 60.2727 20.4C60.286 20.7867 60.2993 21.22 60.3127 21.7C60.326 22.18 60.3327 22.6733 60.3327 23.18V30H58.7327V16.36Z" fill="white"/>
<path d="M78.4013 17.92H74.1212V16.36H84.3613V17.92H80.0813V30H78.4013V17.92Z" fill="white"/>
<path d="M91.8022 16.36H93.8822L98.5622 30H96.8222L95.6222 26.36H90.0822L88.8622 30H87.1222L91.8022 16.36ZM95.0822 24.76L92.8822 17.96H92.8222L90.6022 24.76H95.0822Z" fill="white"/>
<path d="M112.813 18.28C112.48 18.1733 112.127 18.08 111.753 18C111.38 17.9067 110.967 17.8333 110.513 17.78C110.073 17.7133 109.607 17.68 109.113 17.68C108.313 17.68 107.633 17.8533 107.073 18.2C106.513 18.5467 106.053 18.9933 105.693 19.54C105.347 20.0733 105.093 20.6733 104.933 21.34C104.773 22.0067 104.693 22.6667 104.693 23.32C104.693 24.1467 104.807 24.9 105.033 25.58C105.273 26.2467 105.593 26.82 105.993 27.3C106.407 27.7667 106.88 28.1267 107.413 28.38C107.96 28.6333 108.533 28.76 109.133 28.76C109.693 28.76 110.207 28.7333 110.673 28.68C111.14 28.6133 111.54 28.5467 111.873 28.48C112.26 28.4 112.607 28.3067 112.913 28.2L113.253 29.62C112.893 29.74 112.493 29.8467 112.053 29.94C111.68 30.02 111.247 30.0933 110.753 30.16C110.26 30.2267 109.72 30.26 109.133 30.26C108.08 30.26 107.153 30.0867 106.353 29.74C105.567 29.3933 104.907 28.9133 104.373 28.3C103.853 27.6733 103.46 26.94 103.193 26.1C102.927 25.2467 102.793 24.3133 102.793 23.3C102.793 22.14 102.953 21.12 103.273 20.24C103.593 19.3467 104.033 18.6 104.593 18C105.153 17.4 105.82 16.9467 106.593 16.64C107.367 16.3333 108.213 16.18 109.133 16.18C109.693 16.18 110.213 16.2133 110.693 16.28C111.187 16.3333 111.633 16.4067 112.033 16.5C112.447 16.5933 112.827 16.6933 113.173 16.8L112.813 18.28Z" fill="white"/>
<path d="M121.542 17.92H117.262V16.36H127.502V17.92H123.222V30H121.542V17.92Z" fill="white"/>
</g>
</svg>
