<svg width="30" height="30" viewBox="0 0 30 30" fill="none" xmlns="http://www.w3.org/2000/svg">
<g id="bell-03">
<path id="Icon" d="M5.13197 22.6342L4.33815 22.0261H4.33815L5.13197 22.6342ZM6.58569 18.5472L5.58569 18.5348V18.5472H6.58569ZM6.6162 16.0761L7.6162 16.0884V16.0761H6.6162ZM24.8758 22.6541L25.6817 22.062L25.6817 22.062L24.8758 22.6541ZM23.4768 18.5472L22.4768 18.5342V18.5472H23.4768ZM23.5073 16.1985L24.5073 16.2115V16.1985H23.5073ZM5.92579 23.2424C6.75489 22.1602 7.58569 20.5356 7.58569 18.5472H5.58569C5.58569 19.9694 4.98852 21.1772 4.33815 22.0261L5.92579 23.2424ZM7.58561 18.5595L7.61613 16.0884L5.61628 16.0637L5.58577 18.5348L7.58561 18.5595ZM25.6817 22.062C25.0589 21.2143 24.4768 19.9934 24.4768 18.5472H22.4768C22.4768 20.5351 23.2734 22.1619 24.0699 23.2461L25.6817 22.062ZM24.4767 18.5602L24.5072 16.2115L22.5074 16.1856L22.4769 18.5342L24.4767 18.5602ZM24.5073 16.1985C24.5073 10.9795 20.2427 6.76316 15 6.76316V8.76316C19.1542 8.76316 22.5073 12.1001 22.5073 16.1985H24.5073ZM24.3667 24.7993C25.1448 24.7993 25.6445 24.2568 25.8502 23.7776C26.0546 23.3016 26.0937 22.6228 25.6817 22.062L24.0699 23.2461C24.0167 23.1737 24.0026 23.105 24.0004 23.0664C23.9983 23.0304 24.0049 23.0063 24.0124 22.9886C24.0197 22.9717 24.0404 22.9321 24.0947 22.8899C24.1555 22.8426 24.2517 22.7993 24.3667 22.7993V24.7993ZM7.6162 16.0761C7.6162 12.0453 10.914 8.76316 15 8.76316V6.76316C9.82549 6.76316 5.6162 10.9247 5.6162 16.0761H7.6162ZM5.63454 22.7993C5.75227 22.7993 5.84984 22.8444 5.91025 22.8923C5.96385 22.9348 5.9831 22.9737 5.98925 22.9884C5.99574 23.004 6.00191 23.0265 5.99946 23.0616C5.99682 23.0993 5.98191 23.1691 5.92579 23.2424L4.33815 22.0261C3.90817 22.5873 3.94302 23.2771 4.1429 23.7572C4.34389 24.2399 4.84348 24.7993 5.63454 24.7993V22.7993ZM24.3667 22.7993H5.63454V24.7993H24.3667V22.7993ZM18 23.7993C18 25.219 16.7315 26.5 15 26.5V28.5C17.6868 28.5 20 26.4672 20 23.7993H18ZM15 26.5C13.2685 26.5 12 25.219 12 23.7993H10C10 26.4672 12.3132 28.5 15 28.5V26.5ZM16.6667 5.13158C16.6667 6.02023 15.933 6.76316 15 6.76316V8.76316C17.0125 8.76316 18.6667 7.14969 18.6667 5.13158H16.6667ZM15 6.76316C14.067 6.76316 13.3333 6.02023 13.3333 5.13158H11.3333C11.3333 7.14969 12.9875 8.76316 15 8.76316V6.76316ZM13.3333 5.13158C13.3333 4.24293 14.067 3.5 15 3.5V1.5C12.9875 1.5 11.3333 3.11347 11.3333 5.13158H13.3333ZM15 3.5C15.933 3.5 16.6667 4.24293 16.6667 5.13158H18.6667C18.6667 3.11347 17.0125 1.5 15 1.5V3.5Z" fill="black"/>
</g>
</svg>
